<svg viewBox="0 0 480 320" fill="none" xmlns="http://www.w3.org/2000/svg">
  <defs>
    <linearGradient id="m4bg" x1="0" y1="0" x2="480" y2="320" gradientUnits="userSpaceOnUse">
      <stop offset="0%" stop-color="#fff7ed"/>
      <stop offset="100%" stop-color="#ffedd5"/>
    </linearGradient>
  </defs>
  <rect width="480" height="320" rx="24" fill="url(#m4bg)"/>

  <!-- Shield -->
  <g transform="translate(240,140)">
    <path d="M0,-72 L56,-52 L56,10 C56,42 28,66 0,78 C-28,66 -56,42 -56,10 L-56,-52 Z" fill="white" stroke="#f97316" stroke-width="2.5"/>
    <path d="M0,-54 L40,-38 L40,8 C40,32 20,50 0,60 C-20,50 -40,32 -40,8 L-40,-38 Z" fill="#fff7ed" stroke="#fb923c" stroke-width="1"/>
    <rect x="-12" y="-8" width="24" height="20" rx="4" fill="#f97316"/>
    <path d="M-6,-8 L-6,-18 C-6,-26 6,-26 6,-18 L6,-8" stroke="#f97316" stroke-width="2.5" fill="none" stroke-linecap="round"/>
    <circle cx="0" cy="4" r="3" fill="white"/>
    <rect x="-1" y="4" width="2" height="6" rx="1" fill="white"/>
  </g>

  <!-- Glow rings -->
  <circle cx="240" cy="140" r="90" fill="none" stroke="#f97316" stroke-width="1" opacity="0.15"/>
  <circle cx="240" cy="140" r="110" fill="none" stroke="#f97316" stroke-width="1" opacity="0.08"/>

  <!-- Warning signs -->
  <g transform="translate(68,70)">
    <rect width="76" height="40" rx="10" fill="white" stroke="#fed7aa" stroke-width="1.5"/>
    <text x="12" y="26" font-size="11" fill="#c2410c" font-family="system-ui" font-weight="600">⚠️ Phishing</text>
  </g>
  <g transform="translate(340,55)">
    <rect width="100" height="40" rx="10" fill="white" stroke="#fed7aa" stroke-width="1.5"/>
    <text x="12" y="26" font-size="11" fill="#c2410c" font-family="system-ui" font-weight="600">🔒 Data Leak</text>
  </g>
  <g transform="translate(52,210)">
    <rect width="88" height="40" rx="10" fill="white" stroke="#fed7aa" stroke-width="1.5"/>
    <text x="12" y="26" font-size="11" fill="#c2410c" font-family="system-ui" font-weight="600">🛡️ Injection</text>
  </g>
  <g transform="translate(354,220)">
    <rect width="90" height="40" rx="10" fill="white" stroke="#fed7aa" stroke-width="1.5"/>
    <text x="12" y="26" font-size="11" fill="#c2410c" font-family="system-ui" font-weight="600">🔍 Bias Risk</text>
  </g>

  <rect x="170" y="268" width="140" height="32" rx="16" fill="#f97316"/>
  <text x="240" y="289" font-size="12" fill="white" text-anchor="middle" font-family="system-ui, sans-serif" font-weight="600">Safety &amp; Trust</text>
</svg>
